<?xml version="1.0" encoding="UTF-8"?>
<svg xmlns="http://www.w3.org/2000/svg" xmlns:xlink="http://www.w3.org/1999/xlink" width="854" height="480" viewBox="0 0 854 480">
<defs>
<g>
<g id="glyph-0-0">
<path d="M 2.835938 -1.144531 C 2.707031 -1.445312 2.582031 -1.640625 2.46875 -1.738281 C 2.351562 -1.835938 2.191406 -1.882812 1.988281 -1.882812 L 1.875 -1.882812 C 2.003906 -1.789062 2.15625 -1.542969 2.328125 -1.144531 L 2.6875 -0.296875 L 3.191406 -0.296875 Z M 2.523438 -2.0625 C 2.613281 -2.011719 2.707031 -1.921875 2.800781 -1.789062 C 2.898438 -1.660156 2.996094 -1.46875 3.101562 -1.21875 L 3.617188 0 L 2.507812 0 L 2.023438 -1.144531 C 1.898438 -1.441406 1.777344 -1.640625 1.660156 -1.738281 C 1.542969 -1.835938 1.382812 -1.882812 1.179688 -1.882812 L 1.128906 -1.882812 L 1.128906 0 L 0.109375 0 L 0.109375 -4.453125 L 1.832031 -4.453125 C 2.261719 -4.453125 2.585938 -4.347656 2.796875 -4.136719 C 3.011719 -3.921875 3.117188 -3.601562 3.117188 -3.171875 C 3.117188 -2.757812 3.019531 -2.453125 2.820312 -2.257812 C 2.738281 -2.175781 2.640625 -2.113281 2.523438 -2.0625 Z M 1.128906 -4.15625 L 1.128906 -2.179688 L 1.953125 -2.179688 C 1.992188 -2.179688 2.03125 -2.183594 2.070312 -2.1875 L 2.070312 -4.148438 C 2.03125 -4.152344 1.992188 -4.15625 1.953125 -4.15625 Z M 2.335938 -4.085938 L 2.335938 -2.253906 C 2.445312 -2.296875 2.535156 -2.359375 2.609375 -2.441406 C 2.761719 -2.613281 2.835938 -2.855469 2.835938 -3.171875 C 2.835938 -3.488281 2.761719 -3.730469 2.613281 -3.898438 C 2.542969 -3.980469 2.449219 -4.042969 2.335938 -4.085938 Z M 0.363281 -4.15625 L 0.363281 -0.296875 L 0.878906 -0.296875 L 0.878906 -4.15625 Z "/>
</g>
<g id="glyph-1-0">
<path d="M 0.0273438 -1.636719 C 0.539062 -2.132812 0.871094 -2.476562 1.023438 -2.664062 C 1.175781 -2.855469 1.25 -3.054688 1.25 -3.261719 C 1.25 -3.425781 1.195312 -3.558594 1.082031 -3.65625 C 0.96875 -3.757812 0.847656 -3.808594 0.714844 -3.808594 C 0.550781 -3.808594 0.421875 -3.753906 0.320312 -3.644531 C 0.257812 -3.582031 0.191406 -3.476562 0.125 -3.324219 L 0.0195312 -3.351562 C 0.0664062 -3.582031 0.167969 -3.765625 0.320312 -3.898438 C 0.476562 -4.03125 0.65625 -4.097656 0.859375 -4.097656 C 1.066406 -4.097656 1.238281 -4.035156 1.378906 -3.902344 C 1.519531 -3.769531 1.589844 -3.613281 1.589844 -3.429688 C 1.589844 -3.238281 1.539062 -3.054688 1.433594 -2.882812 C 1.328125 -2.710938 1.117188 -2.488281 0.804688 -2.210938 L 0.445312 -1.859375 C 0.503906 -1.859375 0.597656 -1.859375 0.722656 -1.855469 C 0.847656 -1.855469 0.941406 -1.851562 1 -1.851562 C 1.269531 -1.851562 1.433594 -1.863281 1.496094 -1.882812 C 1.554688 -1.90625 1.625 -1.980469 1.703125 -2.105469 L 1.773438 -2.078125 L 1.574219 -1.574219 L 0.0273438 -1.574219 Z "/>
</g>
</g>
</defs>
<g fill="rgb(73.333333%, 73.333333%, 73.333333%)" fill-opacity="1">
<use xlink:href="#glyph-0-0" x="30" y="25.671875"/>
</g>
<g fill="rgb(73.333333%, 73.333333%, 73.333333%)" fill-opacity="1">
<use xlink:href="#glyph-1-0" x="34" y="25.671875"/>
</g>
</svg>
